<svg width="73" height="73" viewBox="0 0 73 73" fill="none" xmlns="http://www.w3.org/2000/svg">
<g clip-path="url(#clip0_28_2071)">
<path d="M53.2292 63.875C50.4057 63.875 47.6979 62.7534 45.7014 60.7569C43.7049 58.7604 42.5833 56.0526 42.5833 53.2292C42.5833 50.4057 43.7049 47.6979 45.7014 45.7014C47.6979 43.7049 50.4057 42.5833 53.2292 42.5833C56.0526 42.5833 58.7604 43.7049 60.7569 45.7014C62.7534 47.6979 63.875 50.4057 63.875 53.2292C63.875 56.0526 62.7534 58.7604 60.7569 60.7569C58.7604 62.7534 56.0526 63.875 53.2292 63.875ZM53.2292 57.7917C54.4392 57.7917 55.5997 57.311 56.4553 56.4553C57.311 55.5997 57.7917 54.4392 57.7917 53.2292C57.7917 52.0191 57.311 50.8586 56.4553 50.003C55.5997 49.1474 54.4392 48.6667 53.2292 48.6667C52.0191 48.6667 50.8586 49.1474 50.003 50.003C49.1474 50.8586 48.6667 52.0191 48.6667 53.2292C48.6667 54.4392 49.1474 55.5997 50.003 56.4553C50.8586 57.311 52.0191 57.7917 53.2292 57.7917ZM19.7708 30.4167C18.3728 30.4167 16.9885 30.1413 15.6968 29.6063C14.4052 29.0713 13.2316 28.2871 12.2431 27.2986C11.2545 26.31 10.4704 25.1364 9.93537 23.8448C9.40036 22.5532 9.125 21.1689 9.125 19.7708C9.125 18.3728 9.40036 16.9885 9.93537 15.6968C10.4704 14.4052 11.2545 13.2317 12.2431 12.2431C13.2316 11.2545 14.4052 10.4704 15.6968 9.93537C16.9885 9.40036 18.3728 9.125 19.7708 9.125C22.5943 9.125 25.3021 10.2466 27.2986 12.2431C29.2951 14.2396 30.4167 16.9474 30.4167 19.7708C30.4167 22.5943 29.2951 25.3021 27.2986 27.2986C25.3021 29.2951 22.5943 30.4167 19.7708 30.4167ZM19.7708 24.3333C20.9809 24.3333 22.1414 23.8526 22.997 22.997C23.8526 22.1414 24.3333 20.9809 24.3333 19.7708C24.3333 18.5608 23.8526 17.4003 22.997 16.5447C22.1414 15.689 20.9809 15.2083 19.7708 15.2083C18.5608 15.2083 17.4003 15.689 16.5447 16.5447C15.689 17.4003 15.2083 18.5608 15.2083 19.7708C15.2083 20.9809 15.689 22.1414 16.5447 22.997C17.4003 23.8526 18.5608 24.3333 19.7708 24.3333ZM58.0076 10.6915L62.3085 14.9924L14.9954 62.3085L10.6945 58.0076L58.0046 10.6915H58.0076Z" fill="#6D78E2"/>
</g>
<defs>
<clipPath id="clip0_28_2071">
<rect width="73" height="73" fill="white"/>
</clipPath>
</defs>
</svg>
