<svg width="73" height="73" viewBox="0 0 73 73" fill="none" xmlns="http://www.w3.org/2000/svg">
<g clip-path="url(#clip0_28_2084)">
<path d="M58.9356 45.9375C60.9092 41.2482 61.3635 36.0582 60.2347 31.0973C59.1058 26.1364 56.4505 21.654 52.6422 18.2804C48.8338 14.9068 44.0639 12.8115 39.0031 12.2892C33.9422 11.767 28.845 12.844 24.4279 15.3687L21.4106 10.0854C26.0267 7.44708 31.254 6.0654 36.5709 6.07821C41.8877 6.09102 47.1083 7.49786 51.7117 10.1584C65.3687 18.0424 70.6004 34.9236 64.2342 49.0005L68.3161 51.3547L55.6476 58.089L55.1457 43.7505L58.9356 45.9375ZM14.071 27.0609C12.0974 31.7502 11.6431 36.9402 12.772 41.9011C13.9009 46.862 16.5561 51.3444 20.3645 54.718C24.1728 58.0917 28.9427 60.1869 34.0036 60.7092C39.0644 61.2314 44.1617 60.1545 48.5787 57.6297L51.5961 62.913C46.9799 65.5513 41.7527 66.933 36.4358 66.9202C31.1189 66.9074 25.8984 65.5006 21.295 62.84C7.63792 54.956 2.40625 38.0748 8.77246 23.998L4.6875 21.6467L17.356 14.9125L17.8579 29.2509L14.068 27.064L14.071 27.0609ZM25.8575 42.5825H42.5867C42.99 42.5825 43.3768 42.4223 43.6621 42.1371C43.9473 41.8519 44.1075 41.4651 44.1075 41.0617C44.1075 40.6584 43.9473 40.2715 43.6621 39.9863C43.3768 39.7011 42.99 39.5409 42.5867 39.5409H30.42C28.4032 39.5409 26.4691 38.7397 25.043 37.3137C23.617 35.8876 22.8158 33.9535 22.8158 31.9367C22.8158 29.92 23.617 27.9858 25.043 26.5597C26.4691 25.1337 28.4032 24.3325 30.42 24.3325H33.4617V21.2909H39.545V24.3325H47.1492V30.4159H30.42C30.0166 30.4159 29.6298 30.5761 29.3446 30.8613C29.0594 31.1465 28.8992 31.5334 28.8992 31.9367C28.8992 32.3401 29.0594 32.7269 29.3446 33.0121C29.6298 33.2973 30.0166 33.4575 30.42 33.4575H42.5867C44.6034 33.4575 46.5376 34.2587 47.9636 35.6847C49.3897 37.1108 50.1908 39.045 50.1908 41.0617C50.1908 43.0785 49.3897 45.0126 47.9636 46.4387C46.5376 47.8647 44.6034 48.6659 42.5867 48.6659H39.545V51.7075H33.4617V48.6659H25.8575V42.5825Z" fill="#6D78E2"/>
</g>
<defs>
<clipPath id="clip0_28_2084">
<rect width="73" height="73" fill="white"/>
</clipPath>
</defs>
</svg>
