<svg width="73" height="73" viewBox="0 0 73 73" fill="none" xmlns="http://www.w3.org/2000/svg">
<g clip-path="url(#clip0_28_2094)">
<path d="M12.1693 15.2083V57.7917H60.8359V15.2083H12.1693ZM9.1276 9.125H63.8776C64.6843 9.125 65.458 9.44546 66.0284 10.0159C66.5988 10.5863 66.9193 11.36 66.9193 12.1667V60.8333C66.9193 61.64 66.5988 62.4137 66.0284 62.9841C65.458 63.5545 64.6843 63.875 63.8776 63.875H9.1276C8.3209 63.875 7.54724 63.5545 6.97682 62.9841C6.4064 62.4137 6.08594 61.64 6.08594 60.8333V12.1667C6.08594 11.36 6.4064 10.5863 6.97682 10.0159C7.54724 9.44546 8.3209 9.125 9.1276 9.125ZM44.998 29.787L39.5443 24.3333H54.7526V39.5417L49.2989 34.088L37.5459 45.841L31.0945 39.3896L22.4896 47.9914L18.1887 43.6905L31.0945 30.7847L37.5459 37.2391L44.998 29.787Z" fill="#6D78E2"/>
</g>
<defs>
<clipPath id="clip0_28_2094">
<rect width="73" height="73" fill="white"/>
</clipPath>
</defs>
</svg>
