<svg width="24" height="30" viewBox="0 0 24 30" fill="none" xmlns="http://www.w3.org/2000/svg">
<path d="M20.6057 26.4499C20.9615 26.4499 22.0167 26.3876 22.7517 25.6956C23.2386 25.2369 23.4851 24.6058 23.4846 23.8193L23.4835 5.8601C23.488 5.80149 23.5798 4.40874 22.2663 2.9896C20.4306 1.00607 16.9115 0 11.8064 0C6.68367 0 3.15909 1.00787 1.33049 2.99429C0.0251477 4.41296 0.12455 5.80337 0.127966 5.83083V24.2964C0.127966 25.4824 1.09264 26.4471 2.27868 26.4471H4.25357L1.99321 29.3969C1.86709 29.5612 1.89875 29.7967 2.06307 29.9228C2.13136 29.9749 2.21169 30 2.29122 30C2.40373 30 2.5152 29.9492 2.58898 29.853L3.43228 28.7524H20.1804L21.0237 29.853C21.0975 29.9492 21.209 30 21.3215 30C21.401 30 21.4813 29.9749 21.5496 29.9228C21.7139 29.7967 21.7451 29.5612 21.6195 29.3969L19.3588 26.4463H20.486C20.4944 26.4473 20.537 26.4497 20.6061 26.4497L20.6057 26.4499ZM0.876864 7.98302H22.7344V16.274H0.877533L0.876864 7.98302ZM1.88213 3.50228C3.03783 2.24637 5.69721 0.749727 11.8061 0.749727C17.8649 0.749727 20.5272 2.23143 21.6933 3.47455C22.7957 4.64961 22.7384 5.75769 22.7347 5.83097V7.23316L0.877199 7.2329V5.79963C0.876152 5.7889 0.797658 4.6811 1.88246 3.50235L1.88213 3.50228ZM0.877936 24.2961L0.877674 17.0246H22.7338V23.8192C22.7341 24.3891 22.5679 24.8349 22.2398 25.1455C21.6017 25.7494 20.5391 25.6989 20.5072 25.6965L2.27813 25.6968C1.50603 25.6971 0.877539 25.0688 0.877539 24.2962L0.877936 24.2961ZM19.6054 28.0026H4.00732L5.1994 26.4466L18.4129 26.4464L19.6054 28.0026Z" fill="#EA3758"/>
<path d="M5.30654 19.1543C4.17254 19.1543 3.25 20.0771 3.25 21.2108C3.25 22.3448 4.17234 23.2671 5.30654 23.2671C6.44054 23.2671 7.36282 22.3448 7.36282 21.2108C7.36282 20.0771 6.44048 19.1543 5.30654 19.1543ZM5.30654 22.5175C4.58622 22.5175 4.00013 21.9317 4.00013 21.2114C4.00013 20.4908 4.58596 19.905 5.30654 19.905C6.02713 19.905 6.61269 20.4908 6.61269 21.2114C6.61269 21.9317 6.0266 22.5175 5.30654 22.5175Z" fill="#EA3758"/>
<path d="M18.2555 19.1543C17.1215 19.1543 16.1992 20.0771 16.1992 21.2108C16.1992 22.3448 17.1216 23.2671 18.2555 23.2671C19.3894 23.2671 20.312 22.3448 20.312 21.2108C20.3123 20.0771 19.39 19.1543 18.2555 19.1543ZM18.2555 22.5175C17.5352 22.5175 16.9493 21.9317 16.9493 21.2114C16.9493 20.4908 17.5352 19.905 18.2555 19.905C18.9758 19.905 19.5619 20.4908 19.5619 21.2114C19.5622 21.9317 18.9761 22.5175 18.2555 22.5175Z" fill="#EA3758"/>
<path d="M8.97464 5.62013H14.6378C15.3924 5.62013 16.0065 5.00578 16.0065 4.25095V4.14996C16.0065 3.39487 15.3924 2.78125 14.6378 2.78125H8.97464C8.21956 2.78125 7.60547 3.39534 7.60547 4.14996V4.25095C7.60573 5.00604 8.21982 5.62013 8.97464 5.62013ZM8.35585 4.14994C8.35585 3.80902 8.63345 3.53141 8.97464 3.53141H14.6378C14.9792 3.53141 15.2563 3.80901 15.2563 4.14994V4.25094C15.2563 4.59239 14.9787 4.86974 14.6378 4.86974L8.97464 4.87C8.63319 4.87 8.35585 4.59239 8.35585 4.2512V4.14994Z" fill="#EA3758"/>
</svg>
