<svg width="40" height="40" viewBox="0 0 40 40" fill="none" xmlns="http://www.w3.org/2000/svg">
<path d="M11.7824 10.3706C9.04618 11.1934 6.12655 13.2014 4.53659 14.4036C3.75863 14.9918 3.33301 15.9197 3.33301 16.895V33.0107C3.33301 34.4331 5.04617 35.2579 6.22679 34.4646C8.24259 33.11 10.9808 31.5717 13.333 31.3085C18.8635 30.6894 21.1358 37.2443 26.6663 36.6253C29.7785 36.2769 33.5664 33.6968 35.4628 32.2629C36.2407 31.6746 36.6663 30.7468 36.6663 29.7715V13.6558C36.6663 12.2334 34.9532 11.4085 33.7726 12.2019C32.0305 13.3725 29.749 14.6803 27.6434 15.1838" stroke="#28303F" stroke-width="1.5"/>
<path d="M28.3327 11.3333C28.3327 15.7515 24.166 23.3333 19.9993 23.3333C15.8327 23.3333 11.666 15.7515 11.666 11.3333C11.666 6.91497 15.397 3.33325 19.9993 3.33325C24.6017 3.33325 28.3327 6.91497 28.3327 11.3333Z" stroke="#28303F" stroke-width="1.5"/>
<path d="M22.4993 10.8333C22.4993 12.214 21.3801 13.3333 19.9993 13.3333C18.6186 13.3333 17.4993 12.214 17.4993 10.8333C17.4993 9.45254 18.6186 8.33325 19.9993 8.33325C21.3801 8.33325 22.4993 9.45254 22.4993 10.8333Z" stroke="#28303F" stroke-width="1.5"/>
</svg>
