<svg width="40" height="40" viewBox="0 0 40 40" fill="none" xmlns="http://www.w3.org/2000/svg">
<path d="M19.9997 35.9167C19.5855 35.9167 19.2497 36.2525 19.2497 36.6667C19.2497 37.081 19.5855 37.4167 19.9997 37.4167L19.9997 35.9167ZM2.58301 20.0001C2.58301 20.4143 2.91879 20.7501 3.33301 20.7501C3.74722 20.7501 4.08301 20.4143 4.08301 20.0001L2.58301 20.0001ZM19.9997 4.08341C28.7902 4.08341 35.9163 11.2095 35.9163 20.0001L37.4163 20.0001C37.4163 10.3811 29.6186 2.58341 19.9997 2.58341L19.9997 4.08341ZM35.9163 20.0001C35.9163 28.7906 28.7902 35.9167 19.9997 35.9167L19.9997 37.4167C29.6186 37.4167 37.4163 29.619 37.4163 20.0001L35.9163 20.0001ZM4.08301 20.0001C4.08301 11.2095 11.2091 4.08341 19.9997 4.08341L19.9997 2.58341C10.3807 2.58341 2.58301 10.3811 2.58301 20.0001L4.08301 20.0001Z" fill="#28303F"/>
<path d="M19.9997 37.4167C20.4139 37.4167 20.7497 37.081 20.7497 36.6667C20.7497 36.2525 20.4139 35.9167 19.9997 35.9167L19.9997 37.4167ZM4.08301 20.0001C4.08301 19.5859 3.74722 19.2501 3.33301 19.2501C2.91879 19.2501 2.58301 19.5859 2.58301 20.0001L4.08301 20.0001ZM19.7433 35.9147C19.3291 35.9082 18.9881 36.2386 18.9816 36.6528C18.975 37.067 19.3055 37.408 19.7196 37.4145L19.7433 35.9147ZM16.3963 37.0434C16.8016 37.1287 17.1994 36.8692 17.2846 36.4639C17.3699 36.0585 17.1105 35.6608 16.7051 35.5755L16.3963 37.0434ZM16.2075 35.4624C15.8051 35.3641 15.3992 35.6105 15.3009 36.0129C15.2026 36.4153 15.449 36.8212 15.8514 36.9195L16.2075 35.4624ZM12.6931 35.8145C13.069 35.9884 13.5148 35.8247 13.6888 35.4488C13.8627 35.0729 13.699 34.6271 13.3231 34.4531L12.6931 35.8145ZM12.8636 34.2315C12.4935 34.0455 12.0427 34.1948 11.8567 34.5649C11.6708 34.935 11.82 35.3858 12.1902 35.5718L12.8636 34.2315ZM9.35942 33.7897C9.68718 34.043 10.1582 33.9826 10.4115 33.6548C10.6647 33.327 10.6043 32.856 10.2766 32.6027L9.35942 33.7897ZM9.87779 32.2843C9.55827 32.0207 9.08557 32.0661 8.82198 32.3856C8.55839 32.7051 8.60373 33.1778 8.92325 33.4414L9.87779 32.2843ZM6.55835 31.0765C6.82194 31.396 7.29465 31.4414 7.61417 31.1778C7.93369 30.9142 7.97902 30.4415 7.71543 30.122L6.55835 31.0765ZM7.39701 29.7232C7.14374 29.3954 6.67273 29.335 6.34496 29.5883C6.0172 29.8416 5.9568 30.3126 6.21007 30.6403L7.39701 29.7232ZM4.42796 27.8096C4.61393 28.1797 5.06473 28.329 5.43485 28.143C5.80497 27.9571 5.95425 27.5063 5.76828 27.1361L4.42796 27.8096ZM5.54661 26.6767C5.37265 26.3008 4.92689 26.137 4.55098 26.311C4.17506 26.485 4.01135 26.9307 4.1853 27.3066L5.54661 26.6767ZM3.08024 24.1484C3.17857 24.5507 3.58447 24.7972 3.98684 24.6989C4.38921 24.6005 4.63569 24.1946 4.53736 23.7923L3.08024 24.1484ZM4.42423 23.2946C4.33894 22.8893 3.94121 22.6298 3.53587 22.7151C3.13053 22.8004 2.87108 23.1981 2.95637 23.6035L4.42423 23.2946ZM2.58521 20.2801C2.59175 20.6943 2.93279 21.0247 3.34695 21.0182C3.76112 21.0117 4.09156 20.6706 4.08503 20.2565L2.58521 20.2801ZM19.9997 35.9167C19.914 35.9167 19.8286 35.9161 19.7433 35.9147L19.7196 37.4145C19.8128 37.416 19.9062 37.4167 19.9997 37.4167L19.9997 35.9167ZM16.7051 35.5755C16.5383 35.5404 16.3724 35.5027 16.2075 35.4624L15.8514 36.9195C16.0319 36.9636 16.2136 37.0049 16.3963 37.0434L16.7051 35.5755ZM13.3231 34.4531C13.1686 34.3816 13.0154 34.3077 12.8636 34.2315L12.1902 35.5718C12.3563 35.6553 12.524 35.7362 12.6931 35.8145L13.3231 34.4531ZM10.2766 32.6027C10.1419 32.4987 10.009 32.3925 9.87779 32.2843L8.92325 33.4414C9.06672 33.5598 9.21213 33.6759 9.35942 33.7897L10.2766 32.6027ZM7.71543 30.122C7.60721 29.9908 7.50105 29.8578 7.39701 29.7232L6.21007 30.6403C6.32387 30.7876 6.43999 30.933 6.55835 31.0765L7.71543 30.122ZM5.76828 27.1361C5.69202 26.9844 5.61811 26.8312 5.54661 26.6767L4.1853 27.3066C4.26358 27.4758 4.34448 27.6435 4.42796 27.8096L5.76828 27.1361ZM4.53736 23.7923C4.49707 23.6274 4.45934 23.4615 4.42423 23.2946L2.95637 23.6035C2.99481 23.7862 3.03612 23.9678 3.08024 24.1484L4.53736 23.7923ZM4.08503 20.2565C4.08368 20.1712 4.08301 20.0857 4.08301 20.0001L2.58301 20.0001C2.58301 20.0936 2.58374 20.1869 2.58521 20.2801L4.08503 20.2565Z" fill="#28303F"/>
<path d="M22.5 20C22.5 21.3807 21.3807 22.5 20 22.5C18.6193 22.5 17.5 21.3807 17.5 20C17.5 18.6193 18.6193 17.5 20 17.5C21.3807 17.5 22.5 18.6193 22.5 20Z" stroke="#28303F" stroke-width="1.5"/>
<path d="M20 22.5001L20 26.6667M10 20.0001L17.5 20.0001" stroke="#28303F" stroke-width="1.5" stroke-linecap="round" stroke-linejoin="round"/>
</svg>
