<svg width="40" height="40" viewBox="0 0 40 40" fill="none" xmlns="http://www.w3.org/2000/svg">
<rect x="3.33203" y="5" width="33.3333" height="30" rx="4" stroke="#28303F" stroke-width="1.5"/>
<path d="M3.80055 11.0809C3.47711 10.8221 3.00514 10.8745 2.74638 11.198C2.48762 11.5214 2.54006 11.9934 2.86351 12.2522L3.80055 11.0809ZM37.1339 12.2522C37.4573 11.9934 37.5098 11.5214 37.251 11.198C36.9923 10.8745 36.5203 10.8221 36.1968 11.0809L37.1339 12.2522ZM22.4975 23.0008L22.029 22.4152L22.4975 23.0008ZM2.86351 12.2522L17.0314 23.5865L17.9684 22.4152L3.80055 11.0809L2.86351 12.2522ZM22.966 23.5865L37.1339 12.2522L36.1968 11.0809L22.029 22.4152L22.966 23.5865ZM17.0314 23.5865C18.7662 24.9743 21.2312 24.9743 22.966 23.5865L22.029 22.4152C20.842 23.3647 19.1554 23.3647 17.9684 22.4152L17.0314 23.5865Z" fill="#28303F"/>
</svg>
