<svg width="28" height="28" viewBox="0 0 28 28" fill="none" xmlns="http://www.w3.org/2000/svg">
<path fill-rule="evenodd" clip-rule="evenodd" d="M14 28C21.732 28 28 21.732 28 14C28 6.26801 21.732 0 14 0C6.26801 0 0 6.26801 0 14C0 21.732 6.26801 28 14 28ZM11.2071 9.79289C10.8166 9.40237 10.1834 9.40237 9.79289 9.79289C9.40237 10.1834 9.40237 10.8166 9.79289 11.2071L12.5858 14L9.79289 16.7929C9.40237 17.1834 9.40237 17.8166 9.79289 18.2071C10.1834 18.5976 10.8166 18.5976 11.2071 18.2071L14 15.4142L16.7929 18.2071C17.1834 18.5976 17.8166 18.5976 18.2071 18.2071C18.5976 17.8166 18.5976 17.1834 18.2071 16.7929L15.4142 14L18.2071 11.2071C18.5976 10.8166 18.5976 10.1834 18.2071 9.79289C17.8166 9.40237 17.1834 9.40237 16.7929 9.79289L14 12.5858L11.2071 9.79289Z" fill="#3D3D3D"/>
</svg>
