<svg width="28" height="28" viewBox="0 0 28 28" fill="none" xmlns="http://www.w3.org/2000/svg">
<path fill-rule="evenodd" clip-rule="evenodd" d="M14 28C21.732 28 28 21.732 28 14C28 6.26801 21.732 0 14 0C6.26801 0 0 6.26801 0 14C0 21.732 6.26801 28 14 28ZM19.5488 12.0821C19.9393 11.6916 19.9393 11.0584 19.5488 10.6679C19.1582 10.2774 18.5251 10.2774 18.1346 10.6679L12.7167 16.0858L10.7696 14.1387C10.3791 13.7482 9.74592 13.7482 9.35539 14.1387C8.96487 14.5293 8.96487 15.1624 9.35539 15.5529L12.0096 18.2071L12.7167 18.9142L13.4238 18.2071L19.5488 12.0821Z" fill="#F39AAB"/>
</svg>
