<svg width="18" height="22" viewBox="0 0 18 22" fill="none" xmlns="http://www.w3.org/2000/svg">
<path d="M9.48778 12.0713C11.1444 12.0713 12.4873 10.7281 12.4873 9.07129C12.4873 7.41443 11.1444 6.07129 9.48778 6.07129C7.8312 6.07129 6.48828 7.41443 6.48828 9.07129C6.48828 10.7281 7.8312 12.0713 9.48778 12.0713Z" stroke="#3D3D3D" stroke-linecap="round" stroke-linejoin="round"/>
<path d="M9.4886 1.07129C7.3673 1.07129 5.33288 1.91414 3.8329 3.41443C2.33292 4.91473 1.49023 6.94956 1.49023 9.07129C1.49023 10.9633 1.89215 12.2013 2.98993 13.5713L9.4886 21.0713L15.9873 13.5713C17.085 12.2013 17.487 10.9633 17.487 9.07129C17.487 6.94956 16.6443 4.91473 15.1443 3.41443C13.6443 1.91414 11.6099 1.07129 9.4886 1.07129V1.07129Z" stroke="#3D3D3D" stroke-linecap="round" stroke-linejoin="round"/>
</svg>
