<svg width="25" height="26" viewBox="0 0 25 26" fill="none" xmlns="http://www.w3.org/2000/svg">
<path fill-rule="evenodd" clip-rule="evenodd" d="M18.1406 15.619C17.8302 15.4638 16.3083 14.7158 16.025 14.6117C15.7416 14.5085 15.5354 14.4575 15.3281 14.7679C15.1218 15.0763 14.5291 15.7742 14.3489 15.9804C14.1677 16.1877 13.9875 16.2127 13.6781 16.0585C13.3687 15.9023 12.3708 15.5763 11.1885 14.5221C10.2687 13.7013 9.64686 12.6877 9.46665 12.3773C9.28644 12.0679 9.44686 11.9002 9.60207 11.7461C9.74165 11.6075 9.91144 11.3846 10.0666 11.2044C10.2219 11.0231 10.2729 10.894 10.376 10.6867C10.4802 10.4804 10.4281 10.3002 10.35 10.145C10.2729 9.98981 9.65415 8.46585 9.39581 7.84606C9.14477 7.24294 8.88957 7.32523 8.69998 7.31481C8.51873 7.30648 8.31248 7.30439 8.10623 7.30439C7.89998 7.30439 7.56457 7.38148 7.28124 7.69189C6.99686 8.00127 6.1979 8.75023 6.1979 10.2742C6.1979 11.7971 7.30624 13.269 7.46144 13.4763C7.61665 13.6825 9.64373 16.8096 12.7489 18.1502C13.4885 18.469 14.0646 18.6596 14.5135 18.8012C15.2552 19.0377 15.9302 19.0044 16.4635 18.9242C17.0573 18.8356 18.2948 18.1752 18.5531 17.4523C18.8104 16.7294 18.8104 16.1096 18.7333 15.9804C18.6562 15.8513 18.451 15.7742 18.1406 15.619ZM12.4927 23.3304H12.4885C10.6442 23.3307 8.8337 22.8349 7.24686 21.895L6.87186 21.6721L2.97395 22.695L4.01458 18.895L3.76978 18.5054C2.73868 16.8641 2.19301 14.9646 2.19583 13.0263C2.19791 7.34918 6.81665 2.73044 12.4969 2.73044C15.2468 2.73044 17.8323 3.80336 19.776 5.74919C20.7347 6.70396 21.4946 7.83936 22.0117 9.0897C22.5288 10.34 22.7928 11.6805 22.7885 13.0336C22.7864 18.7106 18.1677 23.3304 12.4927 23.3304ZM21.2552 4.27106C20.1075 3.11578 18.7419 2.19975 17.2376 1.57607C15.7332 0.952387 14.1201 0.633449 12.4916 0.637738C5.66457 0.637738 0.10625 6.19502 0.104166 13.0252C0.103125 15.2085 0.672915 17.3398 1.75729 19.2179L0 25.6377L6.56665 23.9148C8.38319 24.9045 10.4188 25.4231 12.4875 25.4231H12.4927C19.3198 25.4231 24.8781 19.8658 24.8802 13.0346C24.8852 11.4068 24.5674 9.79408 23.9452 8.28984C23.323 6.78561 22.4087 5.41968 21.2552 4.27106Z" fill="#979FE9"/>
</svg>
