<svg width="29" height="26" viewBox="0 0 29 26" fill="none" xmlns="http://www.w3.org/2000/svg">
<path d="M26.6012 0.640255C26.2582 0.665262 25.9214 0.745901 25.6042 0.879025H25.5999C25.2954 1.00002 23.8474 1.61033 21.646 2.53543L13.7574 5.8643C8.09696 8.252 2.53265 10.6033 2.53265 10.6033L2.5989 10.5776C2.5989 10.5776 2.21526 10.704 1.81453 10.9791C1.56696 11.137 1.35393 11.3435 1.18832 11.5862C0.991693 11.8753 0.833537 12.3175 0.892311 12.7747C0.988487 13.5478 1.4886 14.0114 1.84766 14.2673C2.21099 14.5264 2.55722 14.6474 2.55722 14.6474H2.56577L7.78385 16.4087C8.01788 17.1615 9.37396 21.6285 9.69989 22.6575C9.89224 23.2721 10.0793 23.6565 10.3133 23.9498C10.4266 24.0997 10.5591 24.225 10.7183 24.3256C10.8011 24.3739 10.8893 24.412 10.9812 24.4391L10.9277 24.4263C10.9438 24.4306 10.9566 24.4434 10.9683 24.4477C11.0111 24.4595 11.0399 24.4638 11.0944 24.4723C11.9205 24.7229 12.5841 24.2089 12.5841 24.2089L12.6215 24.179L15.7023 21.3683L20.8659 25.3375L20.9835 25.3878C22.0596 25.8611 23.1496 25.5977 23.7255 25.133C24.3058 24.6651 24.5313 24.0665 24.5313 24.0665L24.5687 23.9702L28.5589 3.48837C28.6722 2.98299 28.7011 2.50973 28.576 2.05039C28.4471 1.58551 28.1494 1.18569 27.7414 0.929349C27.3989 0.720682 27.0016 0.619963 26.6012 0.640255ZM26.4933 2.83523C26.489 2.90269 26.5018 2.89519 26.4719 3.02475V3.03653L22.5191 23.3053C22.502 23.3342 22.4731 23.3973 22.394 23.4605C22.3107 23.5269 22.2444 23.5687 21.8971 23.4305L15.5816 18.5791L11.7666 22.0632L12.5681 16.9345L22.8867 7.29799C23.312 6.90182 23.1699 6.81831 23.1699 6.81831C23.1998 6.3322 22.5276 6.6759 22.5276 6.6759L9.51609 14.7523L9.51181 14.7309L3.27534 12.627V12.6227L3.25931 12.6195C3.27024 12.6158 3.28095 12.6115 3.29137 12.6066L3.32556 12.5895L3.35869 12.5777C3.35869 12.5777 8.92728 10.2264 14.5878 7.8387C17.4218 6.64271 20.2771 5.43815 22.4731 4.50877C24.6691 3.58473 26.2924 2.90697 26.3843 2.87056C26.4719 2.8363 26.4302 2.8363 26.4933 2.8363V2.83523Z" fill="#979FE9"/>
</svg>
