<svg width="25" height="26" viewBox="0 0 25 26" fill="none" xmlns="http://www.w3.org/2000/svg">
<g clip-path="url(#clip0_569_2302)">
<mask id="mask0_569_2302" style="mask-type:alpha" maskUnits="userSpaceOnUse" x="1" y="1" width="23" height="24">
<path fill-rule="evenodd" clip-rule="evenodd" d="M11.1901 8.94176C11.7837 8.14173 11.9966 7.29857 11.3252 6.55432C9.81847 4.44601 8.80516 3.14223 8.16956 2.51437C6.96122 1.32072 4.97346 1.48218 3.92694 2.51335C3.36484 3.0672 3.17455 3.2574 2.5974 3.84362C-0.617406 7.06015 1.34315 13.8598 6.55502 19.0768C11.7657 24.2926 18.5647 26.2542 21.7863 23.0309C22.3188 22.5175 22.7698 22.0663 23.1254 21.6904C24.151 20.6064 24.3067 18.7063 23.1186 17.4719C22.5096 16.8391 21.2663 15.8747 19.0693 14.3032C18.3964 13.7015 17.5986 13.8319 16.8671 14.3118C16.5153 14.5426 16.2592 14.7761 15.7757 15.2601L14.8977 16.1385C14.7821 16.2542 13.2118 15.4679 11.6876 13.9421C10.1625 12.4155 9.37665 10.8452 9.49174 10.7301C9.7291 10.4928 10.022 10.1997 10.3703 9.85101C10.5237 9.69746 10.5971 9.62312 10.6911 9.52427C10.8871 9.31833 11.0493 9.13144 11.1901 8.94176ZM16.5111 17.759L17.3892 16.8804C17.6553 16.614 17.8278 16.4502 17.9681 16.3373C19.8927 17.7194 21.0073 18.5885 21.4626 19.0616C21.7359 19.3456 21.6935 19.8638 21.4558 20.115C21.127 20.4626 20.6998 20.89 20.1755 21.3957C18.0923 23.4798 12.604 21.8963 8.16871 17.4567C3.73206 13.0157 2.14937 7.52656 4.21681 5.45798C4.79163 4.87417 4.97375 4.69214 5.52782 4.1462C5.73557 3.9415 6.30145 3.89553 6.55417 4.14518C7.04352 4.62857 7.95125 5.79085 9.28656 7.65093C9.21744 7.73675 9.1311 7.83374 9.02603 7.94416C8.94891 8.02521 8.88466 8.09034 8.74421 8.23093C8.39609 8.57939 8.10351 8.87213 7.86648 9.10915C6.37328 10.6022 7.64494 13.1433 10.0615 15.5622C12.4763 17.9795 15.0184 19.2525 16.5111 17.759Z" fill="white"/>
</mask>
<g mask="url(#mask0_569_2302)">
<rect x="-1.25073" y="-0.612061" width="27.5" height="27.5" fill="#979FE9"/>
</g>
</g>
<defs>
<clipPath id="clip0_569_2302">
<rect width="25" height="25" fill="white" transform="translate(0 0.637695)"/>
</clipPath>
</defs>
</svg>
