<svg width="14" height="24" viewBox="0 0 14 24" fill="none" xmlns="http://www.w3.org/2000/svg">
<path d="M0.13725 6.465C0.133828 6.54573 0.146957 6.62632 0.175829 6.70179C0.204701 6.77726 0.248706 6.84603 0.305139 6.90387C0.361572 6.96171 0.429239 7.00739 0.50398 7.03811C0.578721 7.06883 0.658955 7.08394 0.73975 7.0825H2.80225C3.14725 7.0825 3.42225 6.8 3.46725 6.4575C3.69225 4.8175 4.81725 3.6225 6.82225 3.6225C8.53725 3.6225 10.1073 4.48 10.1073 6.5425C10.1073 8.13 9.17225 8.86 7.69475 9.97C6.01225 11.1925 4.67975 12.62 4.77475 14.9375L4.78225 15.48C4.78487 15.644 4.85188 15.8004 4.96881 15.9155C5.08573 16.0305 5.24321 16.095 5.40725 16.095H7.43475C7.60051 16.095 7.75948 16.0292 7.87669 15.9119C7.9939 15.7947 8.05975 15.6358 8.05975 15.47V15.2075C8.05975 13.4125 8.74225 12.89 10.5848 11.4925C12.1073 10.335 13.6948 9.05 13.6948 6.3525C13.6948 2.575 10.5048 0.75 7.01225 0.75C3.84475 0.75 0.37475 2.225 0.13725 6.465V6.465ZM4.02975 20.8725C4.02975 22.205 5.09225 23.19 6.55475 23.19C8.07725 23.19 9.12475 22.205 9.12475 20.8725C9.12475 19.4925 8.07475 18.5225 6.55225 18.5225C5.09225 18.5225 4.02975 19.4925 4.02975 20.8725Z" fill="#6D78E2"/>
</svg>
